<?xml version="1.0" encoding="UTF-8"?>
<!DOCTYPE svg PUBLIC "-//W3C//DTD SVG 1.1//EN" "http://www.w3.org/Graphics/SVG/1.1/DTD/svg11.dtd">
<svg xmlns="http://www.w3.org/2000/svg" version="1.1" width="400px" height="400px" style="shape-rendering:geometricPrecision; text-rendering:geometricPrecision; image-rendering:optimizeQuality; fill-rule:evenodd; clip-rule:evenodd" xmlns:xlink="http://www.w3.org/1999/xlink">
<g><path style="opacity:0.004" fill="#66a7f4" d="M 154.5,-0.5 C 154.833,-0.5 155.167,-0.5 155.5,-0.5C 155.315,0.170143 154.981,0.170143 154.5,-0.5 Z"/></g>
<g><path style="opacity:0.004" fill="#66a7f4" d="M 128.5,0.5 C 129.833,1.16667 129.833,1.16667 128.5,0.5 Z"/></g>
<g><path style="opacity:0.004" fill="#66a7f4" d="M 347.5,24.5 C 348.833,25.1667 348.833,25.1667 347.5,24.5 Z"/></g>
<g><path style="opacity:0.004" fill="#66a7f4" d="M 177.5,34.5 C 178.833,35.1667 178.833,35.1667 177.5,34.5 Z"/></g>
<g><path style="opacity:0.004" fill="#66a7f4" d="M 144.5,37.5 C 145.833,38.1667 145.833,38.1667 144.5,37.5 Z"/></g>
<g><path style="opacity:0.937" fill="#66a7f4" d="M 182.5,38.5 C 248.345,38.1532 297.178,66.4866 329,123.5C 351.372,173.17 349.372,221.837 323,269.5C 308.296,293.516 288.13,312.35 262.5,326C 246.195,329.53 236.861,323.03 234.5,306.5C 234.921,300.157 237.588,294.99 242.5,291C 281.175,269.011 301.841,235.678 304.5,191C 301.77,144.316 279.77,110.316 238.5,89C 191.239,70.5212 149.072,78.3545 112,112.5C 78.5962,150.305 71.5962,192.638 91,239.5C 97.5713,252.408 106.071,263.908 116.5,274C 126.245,281.289 136.078,288.456 146,295.5C 152.961,312.578 147.461,323.244 129.5,327.5C 124.443,327.189 119.776,325.689 115.5,323C 77.6026,300.411 53.4359,267.577 43,224.5C 31.9529,161.291 51.1196,109.458 100.5,69C 125.21,51.5988 152.544,41.4321 182.5,38.5 Z"/></g>
<g><path style="opacity:0.004" fill="#66a7f4" d="M 306.5,49.5 C 307.833,50.1667 307.833,50.1667 306.5,49.5 Z"/></g>
<g><path style="opacity:0.004" fill="#66a7f4" d="M 0.5,61.5 C 1.83333,62.1667 1.83333,62.1667 0.5,61.5 Z"/></g>
<g><path style="opacity:0.004" fill="#66a7f4" d="M 81.5,61.5 C 82.8333,62.1667 82.8333,62.1667 81.5,61.5 Z"/></g>
<g><path style="opacity:0.004" fill="#66a7f4" d="M 210.5,100.5 C 211.833,101.167 211.833,101.167 210.5,100.5 Z"/></g>
<g><path style="opacity:0.004" fill="#66a7f4" d="M 31.5,104.5 C 32.8333,105.167 32.8333,105.167 31.5,104.5 Z"/></g>
<g><path style="opacity:0.004" fill="#66a7f4" d="M 386.5,108.5 C 387.833,109.167 387.833,109.167 386.5,108.5 Z"/></g>
<g><path style="opacity:0.004" fill="#66a7f4" d="M 182.5,111.5 C 183.833,112.167 183.833,112.167 182.5,111.5 Z"/></g>
<g><path style="opacity:0.004" fill="#66a7f4" d="M 355.5,122.5 C 356.833,123.167 356.833,123.167 355.5,122.5 Z"/></g>
<g><path style="opacity:0.004" fill="#66a7f4" d="M 265.5,128.5 C 266.833,129.167 266.833,129.167 265.5,128.5 Z"/></g>
<g><path style="opacity:0.004" fill="#66a7f4" d="M 345.5,136.5 C 346.833,137.167 346.833,137.167 345.5,136.5 Z"/></g>
<g><path style="opacity:0.004" fill="#66a7f4" d="M 397.5,140.5 C 398.833,141.167 398.833,141.167 397.5,140.5 Z"/></g>
<g><path style="opacity:0.004" fill="#66a7f4" d="M 214.5,143.5 C 215.833,144.167 215.833,144.167 214.5,143.5 Z"/></g>
<g><path style="opacity:0.004" fill="#66a7f4" d="M 200.5,144.5 C 201.833,145.167 201.833,145.167 200.5,144.5 Z"/></g>
<g><path style="opacity:0.004" fill="#66a7f4" d="M 221.5,144.5 C 222.833,145.167 222.833,145.167 221.5,144.5 Z"/></g>
<g><path style="opacity:0.004" fill="#66a7f4" d="M 390.5,151.5 C 391.833,152.167 391.833,152.167 390.5,151.5 Z"/></g>
<g><path style="opacity:0.004" fill="#66a7f4" d="M 388.5,164.5 C 389.833,165.167 389.833,165.167 388.5,164.5 Z"/></g>
<g><path style="opacity:0.004" fill="#66a7f4" d="M 227.5,165.5 C 228.833,166.167 228.833,166.167 227.5,165.5 Z"/></g>
<g><path style="opacity:0.004" fill="#66a7f4" d="M 254.5,174.5 C 255.833,175.167 255.833,175.167 254.5,174.5 Z"/></g>
<g><path style="opacity:0.004" fill="#66a7f4" d="M 205.5,194.5 C 206.833,195.167 206.833,195.167 205.5,194.5 Z"/></g>
<g><path style="opacity:0.004" fill="#66a7f4" d="M 137.5,219.5 C 138.833,220.167 138.833,220.167 137.5,219.5 Z"/></g>
<g><path style="opacity:0.004" fill="#66a7f4" d="M 169.5,224.5 C 170.833,225.167 170.833,225.167 169.5,224.5 Z"/></g>
<g><path style="opacity:0.004" fill="#66a7f4" d="M 152.5,234.5 C 153.833,235.167 153.833,235.167 152.5,234.5 Z"/></g>
<g><path style="opacity:0.917" fill="#66a7f4" d="M 188.5,235.5 C 200.515,234.753 208.348,240.087 212,251.5C 212.667,283.167 212.667,314.833 212,346.5C 209.273,357.057 202.439,362.723 191.5,363.5C 181.101,362.265 174.601,356.598 172,346.5C 171.333,314.833 171.333,283.167 172,251.5C 174.786,243.211 180.286,237.878 188.5,235.5 Z"/></g>
<g><path style="opacity:0.004" fill="#66a7f4" d="M 259.5,254.5 C 260.833,255.167 260.833,255.167 259.5,254.5 Z"/></g>
<g><path style="opacity:0.004" fill="#66a7f4" d="M 134.5,255.5 C 135.833,256.167 135.833,256.167 134.5,255.5 Z"/></g>
<g><path style="opacity:0.004" fill="#66a7f4" d="M 342.5,256.5 C 343.833,257.167 343.833,257.167 342.5,256.5 Z"/></g>
<g><path style="opacity:0.004" fill="#66a7f4" d="M 154.5,257.5 C 155.833,258.167 155.833,258.167 154.5,257.5 Z"/></g>
<g><path style="opacity:0.004" fill="#66a7f4" d="M 392.5,273.5 C 393.833,274.167 393.833,274.167 392.5,273.5 Z"/></g>
<g><path style="opacity:0.004" fill="#66a7f4" d="M 71.5,306.5 C 72.8333,307.167 72.8333,307.167 71.5,306.5 Z"/></g>
<g><path style="opacity:0.004" fill="#66a7f4" d="M 234.5,316.5 C 235.833,317.167 235.833,317.167 234.5,316.5 Z"/></g>
<g><path style="opacity:0.004" fill="#66a7f4" d="M 16.5,332.5 C 17.8333,333.167 17.8333,333.167 16.5,332.5 Z"/></g>
<g><path style="opacity:0.004" fill="#66a7f4" d="M 289.5,332.5 C 290.833,333.167 290.833,333.167 289.5,332.5 Z"/></g>
<g><path style="opacity:0.004" fill="#66a7f4" d="M 382.5,350.5 C 383.833,351.167 383.833,351.167 382.5,350.5 Z"/></g>
<g><path style="opacity:0.004" fill="#66a7f4" d="M 282.5,352.5 C 283.833,353.167 283.833,353.167 282.5,352.5 Z"/></g>
<g><path style="opacity:0.004" fill="#66a7f4" d="M 232.5,353.5 C 233.833,354.167 233.833,354.167 232.5,353.5 Z"/></g>
<g><path style="opacity:0.004" fill="#66a7f4" d="M 309.5,367.5 C 310.833,368.167 310.833,368.167 309.5,367.5 Z"/></g>
<g><path style="opacity:0.004" fill="#66a7f4" d="M 42.5,376.5 C 43.8333,377.167 43.8333,377.167 42.5,376.5 Z"/></g>
<g><path style="opacity:0.004" fill="#66a7f4" d="M 316.5,386.5 C 317.833,387.167 317.833,387.167 316.5,386.5 Z"/></g>
<g><path style="opacity:0.004" fill="#66a7f4" d="M 197.5,396.5 C 198.833,397.167 198.833,397.167 197.5,396.5 Z"/></g>
</svg>
