<?xml version="1.0" encoding="UTF-8"?>
<!DOCTYPE svg PUBLIC "-//W3C//DTD SVG 1.1//EN" "http://www.w3.org/Graphics/SVG/1.1/DTD/svg11.dtd">
<!-- Creator: CorelDRAW 2019 (64-Bit) -->
<svg xmlns="http://www.w3.org/2000/svg" xml:space="preserve" width="210mm" height="297mm" version="1.1" style="shape-rendering:geometricPrecision; text-rendering:geometricPrecision; image-rendering:optimizeQuality; fill-rule:evenodd; clip-rule:evenodd"
viewBox="0 0 21000 29700"
 xmlns:xlink="http://www.w3.org/1999/xlink"
 xmlns:xodm="http://www.corel.com/coreldraw/odm/2003">
 <defs>
  <style type="text/css">
   <![CDATA[
    .fil5 {fill:none}
    .fil4 {fill:black}
    .fil2 {fill:black}
    .fil3 {fill:#2D2F2E}
    .fil1 {fill:#DADADA}
    .fil0 {fill:#FEFEFE}
   ]]>
  </style>
 </defs>
 <g id="Capa_x0020_1">
  <metadata id="CorelCorpID_0Corel-Layer"/>
  <g id="_2583755846992">
   <path class="fil0" d="M5065.86 21448.17c132.13,14.14 5077.93,309.95 5077.93,309.95 0,0 3439.9,-24.27 3479.1,-25.56 39.2,-1.29 2182.37,-105.09 2182.37,-105.09l-555.16 -3644.64c0,0 -628.39,-4458.26 -628.39,-4511.18 0,-52.92 72.76,-1038.49 72.76,-1038.49l886.36 -2288.65 357.19 -1131.1 -482.87 -1666.88 -1488.28 -1905 -1488.29 -959.11 -1739.63 -403.5 -1441.99 66.15 -1547.83 965.73 -2526.77 6151.57 -156.5 10185.8z"/>
   <path class="fil1" d="M3858.23 21343.06c522.55,0 1045.11,0 1567.66,0 -128.82,-2798.53 -107.79,-5869.25 222.36,-8147.81 343.67,-2371.87 894.36,-3867.13 1834.77,-5775.89 2140.37,2798.04 4346.2,4735.75 6733.66,4286.26 159.85,-31.96 51.81,-239.23 -85.99,-304.27 -828.36,-257.28 -1570.96,-726.73 -2271.18,-1301 -1376.02,-1128.54 -2661.16,-2489.93 -3966.38,-3785.63 38.25,-428.7 202.99,-785.14 456.14,-1091.01 380.97,-460.31 1114.4,-799.56 1766.36,-1105.03 -1712.54,136.93 -3373.76,368.2 -2797.97,1640.42 -1413.9,2065.82 -2383.95,4287.21 -2960.37,6881.96 -577.46,2599.41 -610.29,5373.61 -499.06,8702z"/>
   <path class="fil1" d="M10871.68 4767.88c-699.77,364.2 -1183.73,740.52 -1397.39,1131.97 -188,344.46 -146.9,727.13 272.91,1024.39 222.68,-2.21 273.37,41.89 496.05,39.68 -814.76,562.76 -1375.53,165.34 -1526.35,-71.73 -182.22,-286.4 -199.5,-1151.17 755.74,-1634.83 350.57,-178.6 701.14,-357.19 1051.71,-535.79 115.78,15.44 231.55,30.87 347.33,46.31z"/>
   <path class="fil1" d="M14765.99 8312.39c-699.77,364.2 -1183.74,740.52 -1397.39,1131.97 -188,344.45 -259.34,793.28 160.47,1090.54 222.68,-2.21 385.81,-24.26 608.49,-26.47 -814.76,562.76 -1474.76,46.27 -1625.57,-190.79 -182.21,-286.39 72.61,-1089.36 915.4,-1546.56 350.57,-178.6 640.7,-326.4 991.27,-505 115.78,15.44 231.55,30.87 347.33,46.31z"/>
   <path class="fil2" d="M3929.08 21401.36c75.75,-213.28 46.08,-4025.81 61.42,-4661.24 73.28,-3034.84 475.68,-5050.75 1688.93,-7741.32 198.18,-439.5 1333.86,-2668.45 1653.88,-3033.84l180.97 202.76c86.75,99.85 109.56,116.54 180.16,207.24 110.21,141.56 257.08,264.45 375.86,400.16 352.84,403.11 1115.07,1147.09 1521.95,1546.81 667.69,631.24 1305.38,1249.3 2008.1,1837.83 677.61,535.68 1544.05,1244.9 2555.8,1267.22 89.17,-47.64 167.69,-132.53 59.09,-242.57 -61.01,-61.82 -196.02,-57.7 -290.93,-69.3 -224.72,-27.46 -387.97,-74.03 -584.27,-155.58 -1273.18,-528.95 -3798.17,-3026.39 -4752.84,-4066.84 -322.17,-345.33 -709.79,-717.25 -990.13,-1091.99 -77.43,-103.51 -179.03,-230.75 -244.55,-391.06 -368.78,-902.26 1966.09,-1108.91 2509.4,-1153.06 1514.27,-45.7 2593.59,204.17 3540.42,961.38 762.67,609.92 1626.38,1571.59 2050.89,2499.05 634.73,1386.74 92.92,2355.77 -446.11,3553.5 -904.66,2010.16 -326.43,2102.91 -528.1,2786.1 -87.42,296.17 -177.23,580.41 -264.54,866 -374.26,1224.25 -749.83,2276.74 -1419.14,3132.33 -264.5,338.11 -784.75,715.23 -1291.68,964.88 -643.01,316.68 -350.13,215.41 -781.91,60.04 -403.76,-145.28 -639.7,-35.12 -1025.99,-29.73 -183.38,2.56 -577.09,-329.98 -726.27,-438.22 -1509.69,-1095.45 -2352.63,-1790.4 -2883.77,-2679.94 -512.03,-857.54 -734.31,-1895.96 -984.82,-3648.44 -52.57,-122.56 -181.04,-131.72 -250.54,-23.95 -83.7,129.79 148.36,1460.63 183.29,1643.63 230.07,1205.31 686.36,2216.89 1508.63,3079.15 695.04,728.86 1521.66,1306.76 2322.84,1908.81 191.52,143.91 350.31,268.1 378.18,304.94 -376.84,85.01 -644.41,331.33 -799.99,609.49 -180.53,322.77 -275.78,803.96 -36.59,1096.44 193.47,236.58 564.25,458.62 1010.02,420.77 635.82,-54 335.66,-624.69 462.67,-1000.45 102.18,208.81 -149.64,670.89 293.17,861.11 301.03,129.32 742.32,16.32 977.29,-117.64 238.3,-135.87 447.36,-348.1 456.39,-711.94 9.93,-399.65 -194.02,-630.52 -318.72,-882.5 570.43,-423.27 1357.78,-475.21 2179.44,-1875.04 495.17,-843.61 818.65,-1914.07 1132.3,-2926.2 72.94,133.4 880.62,5715.4 984.13,6395.74 28.58,187.82 25.71,680.59 221.44,706.28 278.29,36.53 110.34,-472.64 82.18,-655.07l-739.22 -4833.48c-139.27,-943.06 -415.65,-2372.6 -367.16,-3304.18 97.75,-1878 2147.45,-3186.25 788.85,-5660.12 -209.51,-381.48 -494.94,-807.61 -739.82,-1094.7 -496.26,-581.8 -394.88,-458.55 -916.64,-954.2 -1333.7,-1266.96 -3502.31,-1694.69 -5751.67,-1023.92 -451.48,134.64 -974.41,361.7 -1111.48,723.91 -133.52,352.8 114.32,572.22 83.02,724.82l-1016.05 1763.98c-1169.68,2102.33 -1995.54,4437.47 -2269.1,7011.14 -218.58,2056.35 -183.09,4195.33 -173.53,6271.04 2.76,599.38 -51.39,657.71 254.85,659.97zm6660.33 -16756.62c-668.29,109.04 -1258.34,617.75 -1502.67,1058.8 -403.17,727.79 -186.34,1541.68 780.08,1385.63 672.95,-108.66 1219.2,-642.07 1469.62,-1077.02 383.91,-666.77 178.18,-1518.38 -747.03,-1367.41zm3784.19 3550.98c-1798.81,408.85 -2192.39,2768.26 -582.44,2423.08 1765.81,-378.6 2225.06,-2796.42 582.44,-2423.08zm-3926.41 -3298.49c-1491.13,435.39 -1852.22,2336.99 -465.66,1945.72 1413.34,-398.82 1910.99,-2367.74 465.66,-1945.72zm182.77 204.32c-245.81,-137.38 -678.08,163.35 -508.08,325.52 105.44,100.59 584.64,-78.38 508.08,-325.52zm3735.42 3323.6c-559.13,146.14 -975.26,536.33 -1209.07,922.98 -356.67,589.83 -171.29,1241.91 656.37,1046.09 1398.28,-330.83 1984.89,-2343.4 552.7,-1969.07zm-490.7 1345.13c-372.52,170.53 -368.61,557.11 -118.64,463.47 259,-97.01 463.13,-621.17 118.64,-463.47z"/>
   <path class="fil3" d="M9903.02 19318.33c83.59,171.63 212.06,268.12 279.71,486.92 191.15,618.21 -297.23,1160.25 361.19,1124.4 766.84,-41.77 1010.22,-688.99 513.85,-1263.58 -317.93,-368.03 -530.84,-390.2 -1154.75,-347.74z"/>
   <path class="fil3" d="M9891.83 19965.28c-32.34,-203.51 -199.83,-381.44 -277.63,-557.07 -155.75,12.75 -380.35,77.09 -507.23,138.11 -443.1,213.1 -756.4,900.74 -401.37,1232.87 91.3,85.41 770.93,441.71 836.12,99.67 105.79,-555.05 -199.94,-612.04 350.11,-913.58z"/>
   <g>
    <path class="fil4" d="M3846.41 21148.15c3974.16,525.22 7952.14,574.18 11949.29,329.62 82.68,-5.28 153.98,57.46 159.26,140.14 5.28,82.68 -57.46,153.98 -140.14,159.26 -4017.73,245.81 -8014.33,196.15 -12008.95,-331.78 -82.08,-11.19 -139.54,-86.81 -128.35,-168.89 11.19,-82.08 86.81,-139.54 168.89,-128.35z"/>
   </g>
   <path class="fil5" d="M3826.14 21296.77c3783.41,515.94 8043.32,582.05 11979.12,330.7"/>
   <g>
    <path class="fil4" d="M7755.01 21704.66c6.79,1670.77 90.1,3342.06 262.49,5004.14 50.72,489.03 100.69,441.31 -478.88,664.64 -202.31,77.95 -336.28,112.93 -547.78,175.92 -79.76,22.38 -162.57,-24.13 -184.95,-103.89 -22.38,-79.76 24.13,-162.57 103.89,-184.95 355.77,-105.94 529.02,-158.95 832.23,-308.88 -185.17,-1753.36 -279.83,-3482.5 -287,-5246.98 0,-82.84 67.16,-150 150,-150 82.84,0 150,67.16 150,150z"/>
   </g>
   <path class="fil5" d="M7605.01 21704.66c0,1698.74 112.05,3675.83 297.12,5334.12 -269.85,150.38 -525.26,246.43 -951.82,366.16"/>
   <g>
    <path class="fil4" d="M11697.75 21784.58c278.83,1237.97 245.43,3710.86 243.73,5116.95 294.56,113.09 590.95,217.75 886.5,330.89 76.96,30.65 114.5,117.89 83.85,194.85 -30.65,76.96 -117.89,114.5 -194.85,83.85 -365.98,-140.08 -183.56,-72.04 -541.51,-202.21 -522.94,-190.17 -533.83,-89.47 -534.07,-525.3 -0.74,-1286.89 32.18,-3737.73 -232.57,-4918.25 -22.31,-79.78 24.29,-162.54 104.07,-184.85 79.78,-22.31 162.54,24.29 184.85,104.07z"/>
   </g>
   <path class="fil5" d="M11553.29 21824.97c242.23,866.43 238.12,4135.58 238.12,5179.22 231.51,97.46 601.15,216.25 981.07,367.58"/>
  </g>
 </g>
</svg>
